<svg xmlns="http://www.w3.org/2000/svg" version="1.1" xmlns:xlink="http://www.w3.org/1999/xlink" xmlns:svgjs="http://svgjs.com/svgjs" width="1440" height="560" preserveAspectRatio="none" viewBox="0 0 1440 560"><g mask="url(&quot;#SvgjsMask1056&quot;)" fill="none"><rect width="1440" height="560" x="0" y="0" fill="url(#SvgjsRadialGradient1057)"></rect><path d="M0 62.22C45.02 39.71 90.88 90.71 140 70C164.67 59.6 123.27 12.15 147.57 0C193.27 -22.85 213.78 0 280 0C350 0 350 0 420 0C490 0 490 0 560 0C630 0 630 0 700 0C770 0 770 0 840 0C910 0 910 0 980 0C1050 0 1050 0 1120 0C1149.16 0 1150.64 -7.05 1178.33 0C1220.64 10.77 1224.58 35.64 1260 35.64C1276.81 35.64 1264.23 4.73 1282.79 0C1334.23 -13.09 1341.39 0 1400 0C1455.39 0 1473.88 -25.04 1510.77 0C1543.88 22.46 1529.94 46.82 1540 95C1544.55 116.82 1540 117.5 1540 140C1540 210 1540 210 1540 280C1540 350 1540 350 1540 420C1540 490 1575 525 1540 560C1505 595 1470 560 1400 560C1332.6 560 1331.74 562.22 1265.19 560C1261.74 559.89 1262.93 555.33 1260 555.33C1255.5 555.33 1255.66 559.82 1250.34 560C1185.66 562.16 1185.17 560 1120 560C1071.54 560 1067.97 570.56 1023.08 560C997.97 554.09 998.58 527.06 980 527.06C966.67 527.06 976.49 555.95 959.26 560C906.49 572.42 899.63 560 840 560C770 560 770 560 700 560C630 560 630 560 560 560C490 560 490 560 420 560C350 560 350 560 280 560C216.62 560 195.59 584.71 153.24 560C125.59 543.87 146.9 478.33 140 478.33C133.08 478.33 153.43 543.76 125.59 560C83.43 584.59 29.69 593.1 0 560C-33.1 523.1 0 490 0 420C0 350 0 350 0 280C0 210 0 210 0 140C0 101.11 -24.98 74.71 0 62.22" stroke="rgba(6, 204, 5, 1)" stroke-width="2"></path><path d="M280 104.26C218.64 111.6 172.72 100.55 160 140C144.39 188.42 181.89 218.17 223.33 280C241.89 307.68 251.1 319.02 280 319.02C311.6 319.02 315.66 303.91 344.32 280C385.66 245.51 377.73 235.56 420 202.22C466.48 165.56 521.82 164.66 521.82 140C521.82 118 472.21 116.61 420 108.89C351.3 98.74 348.64 96.05 280 104.26" stroke="rgba(208, 222, 9, 1)" stroke-width="2"></path><path d="M700 106.21C667.76 106.21 624.62 128.04 624.62 140C624.62 151.06 663.54 152.25 700 152.25C711.03 152.25 719.6 148.56 719.6 140C719.6 125.54 715.25 106.21 700 106.21" stroke="rgba(6, 204, 5, 1)" stroke-width="2"></path><path d="M560 245C555.77 245 547.27 263.58 547.27 280C547.27 288.86 555.42 295.56 560 295.56C563.65 295.56 563.73 287.9 563.73 280C563.73 262.62 564 245 560 245" stroke="rgba(208, 222, 9, 1)" stroke-width="2"></path><path d="M1260 240.7C1241.62 240.7 1227.06 261.42 1227.06 280C1227.06 296.21 1242.11 310.27 1260 310.27C1282.93 310.27 1308.7 296.63 1308.7 280C1308.7 261.85 1282.44 240.7 1260 240.7" stroke="rgba(6, 204, 5, 1)" stroke-width="2"></path><path d="M700 385.36C657.61 385.36 616 400.83 616 420C616 439.97 657.43 463.64 700 463.64C747.43 463.64 796 439.89 796 420C796 400.75 747.61 385.36 700 385.36" stroke="rgba(6, 204, 5, 1)" stroke-width="2"></path><path d="M280 29.79C257.63 22.21 242.16 8.34 242.16 0C242.16 -6.55 261.08 0 280 0C350 0 350 0 420 0C490 0 490 0 560 0C624.33 0 688.65 -20.23 688.65 0C688.65 24.67 630.26 74.05 560 89.81C495.93 104.19 489.95 75.27 420 60.28C349.95 45.26 346.55 52.35 280 29.79" stroke="rgba(208, 222, 9, 1)" stroke-width="2"></path><path d="M789.6 140C792.09 80.7 694.35 38.59 708.24 0C719.55 -31.41 774.12 0 840 0C910 0 910 0 980 0C1020.84 0 1024.1 -10.63 1061.67 0C1094.1 9.18 1088.6 23.9 1120 39.62C1187.77 73.54 1202.66 110.43 1260 99.27C1304.4 90.62 1281.05 30.09 1323.49 0C1351.05 -19.54 1361.74 0 1400 0C1436.15 0 1472.31 -19.83 1472.31 0C1472.31 36.89 1444.07 65.75 1400 113.45C1379.39 135.75 1371.43 126.61 1342.96 140C1301.43 159.54 1294.42 150.51 1260 179.3C1210.73 220.51 1175.59 232.4 1175.59 280C1175.59 321.53 1214.16 357.57 1260 357.57C1318.75 357.57 1331.56 326.12 1384.78 280C1401.56 265.46 1384.11 236.25 1400 236.25C1430.61 236.25 1438.65 258.57 1477.78 280C1508.65 296.91 1527.66 285.17 1540 312.94C1558.77 355.17 1540 366.47 1540 420C1540 490 1575 525 1540 560C1505 595 1470 560 1400 560C1365 560 1359.85 573.43 1330 560C1289.85 541.93 1299.48 497 1260 497C1199.31 497 1195.28 530.47 1129.66 560C1125.28 561.97 1124.83 560 1120 560C1116.41 560 1115.7 562.09 1112.82 560C1045.7 511.31 1037.27 458.43 980 458.43C938.89 458.43 958.9 528.91 916.05 560C888.9 579.7 878.03 560 840 560C770 560 770 560 700 560C630 560 630 560 560 560C490 560 490 560 420 560C350 560 350 560 280 560C240.27 560 212.86 585.29 200.54 560C178.76 515.29 186.59 478.24 211.79 420C226.32 386.43 243.46 376.39 280 376.39C338.02 376.39 341.43 396.23 400.91 420C411.43 424.21 411.09 425.3 420 432.35C490.64 488.3 482.35 524.72 560 546C622.35 563.09 631.36 531.69 700 509.09C771.36 485.59 770.76 483.17 840 453.79C875.76 438.62 910 437.4 910 420C910 402.35 877.12 396.2 840 383.7C772.12 360.84 764.29 378.32 700 349.28C649.49 326.47 610.4 316.77 610.4 280C610.4 240.13 651.84 233.63 700 196C741.44 163.63 787.97 178.7 789.6 140" stroke="rgba(6, 204, 5, 1)" stroke-width="2"></path><path d="M980 91.88C956.55 91.88 926.9 110.38 926.9 140C926.9 193.67 958.26 258.46 980 258.46C1000.52 258.46 1011.43 196.7 1011.43 140C1011.43 113.41 998.81 91.88 980 91.88" stroke="rgba(208, 222, 9, 1)" stroke-width="2"></path><path d="M0 434C19.9 434 74.12 518.2 74.12 560C74.12 581.2 13.73 583.33 0 560C-23.33 520.33 -17.16 434 0 434" stroke="rgba(208, 222, 9, 1)" stroke-width="2"></path><path d="M420 11.67C399.42 8.95 380 2.98 380 0C380 -2.86 400 0 420 0C490 0 490 0 560 0C577.03 0 594.05 -5.35 594.05 0C594.05 6.53 579.85 22.44 560 23.77C492.83 28.27 489.42 20.84 420 11.67" stroke="rgba(6, 204, 5, 1)" stroke-width="2"></path><path d="M840 107.33C800.15 107.33 776.86 35.61 776.86 0C776.86 -18.06 808.43 0 840 0C899.63 0 959.26 -22.88 959.26 0C959.26 30.78 891.35 107.33 840 107.33" stroke="rgba(208, 222, 9, 1)" stroke-width="2"></path><path d="M1082.86 140C1084.33 117.15 1098.37 105.66 1120 105.66C1158.3 105.66 1201.99 108.78 1202.73 140C1204.05 195.95 1160.82 209.03 1124.12 280C1119.45 289.03 1123.61 300 1120 300C1115.95 300 1111.38 291.09 1108.8 280C1092.81 211.09 1078.73 204.32 1082.86 140" stroke="rgba(208, 222, 9, 1)" stroke-width="2"></path><path d="M1400 53.1C1382.44 53.1 1364.19 17.03 1364.19 0C1364.19 -9.52 1382.1 0 1400 0C1416.93 0 1433.85 -9.28 1433.85 0C1433.85 17.27 1417.27 53.1 1400 53.1" stroke="rgba(6, 204, 5, 1)" stroke-width="2"></path><path d="M657.07 280C657.07 260.89 674.29 253.17 700 239.75C765.75 205.44 783.66 172.94 840 184.55C881.29 193.06 895.26 238.35 895.26 280C895.26 305.52 871.76 313.49 840 318.89C774.13 330.09 765.93 327.22 700 313.2C674.46 307.77 657.07 297.62 657.07 280" stroke="rgba(208, 222, 9, 1)" stroke-width="2"></path><path d="M1204 420C1204 411.62 1232.63 414.38 1260 404.86C1330.63 380.28 1334.82 347.42 1400 351.79C1447.72 354.99 1483.08 377.3 1485.81 420C1489.74 481.41 1452.89 495.46 1413.33 560C1409.99 565.46 1406.66 560 1400 560C1397.4 560 1396.76 561.69 1394.81 560C1326.76 501.02 1331.98 491.48 1260 438.67C1236.57 421.48 1204 428.53 1204 420" stroke="rgba(208, 222, 9, 1)" stroke-width="2"></path><path d="M0 521.5C6.08 521.5 22.65 547.23 22.65 560C22.65 566.48 4.19 567.13 0 560C-7.13 547.88 -5.24 521.5 0 521.5" stroke="rgba(208, 222, 9, 1)" stroke-width="2"></path><path d="M247.84 560C247.84 520.1 245.32 461.5 280 456.52C331.4 449.14 351.84 493.31 420 535.29C435.84 545.05 448 552.94 448 560C448 565.29 434 560 420 560C350 560 350 560 280 560C263.92 560 247.84 571.84 247.84 560" stroke="rgba(6, 204, 5, 1)" stroke-width="2"></path><path d="M684.44 560C684.44 558.6 692.09 556.88 700 554.55C769.87 533.95 777.7 512.18 840 514.14C864.12 514.9 872.84 545.51 872.84 560C872.84 568.44 856.42 560 840 560C770 560 770 560 700 560C692.22 560 684.44 561.32 684.44 560" stroke="rgba(208, 222, 9, 1)" stroke-width="2"></path></g><defs><mask id="SvgjsMask1056"><rect width="1440" height="560" fill="#ffffff"></rect></mask><radialGradient cx="100%" cy="100%" r="1545.06" gradientUnits="userSpaceOnUse" id="SvgjsRadialGradient1057"><stop stop-color="#0e2a47" offset="0"></stop><stop stop-color="rgba(113, 62, 2, 0.99)" offset="1"></stop></radialGradient></defs></svg>